<svg xmlns="http://www.w3.org/2000/svg" viewBox="0 0 119.29 118.44"><defs><style>.cls-1{isolation:isolate;}.cls-2{fill:#fff;}.cls-3{fill:#a15547;}.cls-4,.cls-6{mix-blend-mode:multiply;}.cls-4{opacity:0.4;}.cls-5{fill:#2f1e1f;}.cls-6{opacity:0.3;}</style></defs><g class="cls-1"><g id="Layer_1" data-name="Layer 1"><path class="cls-2" d="M743.18,387.74c-.46-6.77-3.81-12.69-9-15.83a17,17,0,0,0-5.77-2.21,21.6,21.6,0,0,0-14.14-5.34,20.94,20.94,0,0,0-11.49,3.48c-7.4,4.87-10.81,12.78-13.83,19.75-.34.8-.68,1.6-1,2.38a26.06,26.06,0,0,1-3.87,6.17c.26-2.63.34-5.27.41-8a97.12,97.12,0,0,1,1.23-14.75c1.49-8.65,4.09-29.81-4.16-39.61a13.12,13.12,0,0,0-10.13-4.87l-.65,0a15.87,15.87,0,0,0-10.56-3.68A15.36,15.36,0,0,0,654,326.5c-9.74,3.88-15.84,9.31-19.77,17.57A95.84,95.84,0,0,0,628.91,360c-.23.84-.45,1.68-.68,2.49l-.26.93a131.27,131.27,0,0,0-3.52,15c-2,13,1.63,29.72,14.25,37.88a16.57,16.57,0,0,0,9,2.92,13.3,13.3,0,0,0,1.68-.1,15.32,15.32,0,0,0,9.56,3,24.91,24.91,0,0,0,10.23-2.33c-.69,7.49,1.75,15.36,8.24,20,3.63,2.59,8.26,3.91,13.77,3.91h0l1.18,0c11.09-.36,22.09-5.2,31-13.62,7.38-7,13.18-16.26,17.24-27.54C742,398.59,743.55,393.33,743.18,387.74Z" transform="translate(-623.94 -325.28)"/><path class="cls-3" d="M725.49,375.67c-5-5.22-12.48-6.47-18.51-2.5-6.4,4.2-9.23,12.13-12.33,19.13C690.3,402.12,682.8,405.92,679,412c-4.19,6.73-3.67,17,2.77,21.64,3,2.17,7,2.72,10.69,2.6,9.84-.32,19.27-4.94,26.42-11.71S731,409,734.35,399.7c1.39-3.85,2.51-7.89,2.24-12s-2.16-8.24-5.66-10.37c-6.37-3.89-14.75.4-19.7,6-6.24,7.07-7.11,28.48-22.49,37-11.61,6.41-6.45,13.54-6.45,13.54" transform="translate(-623.94 -325.28)"/><path d="M725.94,375.23a15.7,15.7,0,0,0-13.07-4.91c-4.73.6-8.61,3.59-11.42,7.31-3.1,4.12-5,9-7,13.68a40.15,40.15,0,0,1-8.7,12.27c-2.85,2.87-6,5.63-7.91,9.27A19.43,19.43,0,0,0,676,425.43a13.65,13.65,0,0,0,7.56,10c4.89,2.19,10.81,1.71,15.9.53,10.7-2.5,19.79-9.5,26.21-18.26a68.56,68.56,0,0,0,7.91-14.33C735.83,398,738,392,737,386.08c-.75-4.59-3.6-8.92-8.19-10.35s-9.61.43-13.41,3.08a20.85,20.85,0,0,0-7.06,7.92,93.68,93.68,0,0,0-3.76,9.66c-2.77,7.69-6,15.7-12.57,21-3.53,2.86-8.18,4.38-10.46,8.61a8.18,8.18,0,0,0-.44,7,5.68,5.68,0,0,0,.62,1.2c.47.65,1.55,0,1.08-.63a6.38,6.38,0,0,1-1.06-3.68c0-3.95,3.54-6.82,6.66-8.65a30.59,30.59,0,0,0,8.91-7.53A44.18,44.18,0,0,0,703,404c1.41-3.22,2.58-6.54,3.77-9.86a49.07,49.07,0,0,1,3.49-8.25c3.92-6.72,15.26-13.2,22-6.71,4,3.85,4.3,9.85,3.15,15a62.27,62.27,0,0,1-6,15.39c-4.92,9.23-12.09,17.34-21.53,22.09a37.09,37.09,0,0,1-15,4.05c-5,.22-10.4-.85-13.44-5.23a16.11,16.11,0,0,1-2.19-12.06,20.09,20.09,0,0,1,5.69-10.2c2.79-2.91,5.79-5.59,8.25-8.79,3-3.89,4.66-8.36,6.67-12.78,1.91-4.2,4.14-8.45,7.68-11.52a13.73,13.73,0,0,1,13.57-2.84,15.49,15.49,0,0,1,6,3.9.63.63,0,0,0,.89-.88Z" transform="translate(-623.94 -325.28)"/><g class="cls-4"><path class="cls-5" d="M682.45,435s-.05-.09-.12-.24l-.06,0Z" transform="translate(-623.94 -325.28)"/><path class="cls-5" d="M736.74,388.8a15.92,15.92,0,0,0-.21-1.69c-4,21.12-23.3,42.27-45.11,43a2.52,2.52,0,0,1-2.57-2.46,4.77,4.77,0,0,1,2.16-4.54c16-9,16-29,29-41,2.6-3.47,7.44-3.18,11.94-3a8.5,8.5,0,0,0-.86-.62,10.27,10.27,0,0,0-5.33-1.48,23.56,23.56,0,0,0-3.77-3.09,3,3,0,0,0-2.85.2.28.28,0,0,1-.13,0c-5,3-10,4-11,8-5,16-12,32-27,40a4.22,4.22,0,0,1-1.61.12,2.48,2.48,0,0,0-2.82,2.75c.41,3.59,2,7.63,5.73,9.69l0,.07a7.92,7.92,0,0,0,.69.42,17.31,17.31,0,0,0,9.58,2.2c9.85-.32,19.27-4.94,26.42-11.71S731.17,410,734.5,400.77C735.89,396.92,737,392.88,736.74,388.8Z" transform="translate(-623.94 -325.28)"/></g><path d="M677,425.72a14.13,14.13,0,0,1,1.2,1.29,7.72,7.72,0,0,1,1,1.49,3.24,3.24,0,0,1-1.49-1.07A2.79,2.79,0,0,1,677,425.72Z" transform="translate(-623.94 -325.28)"/><path d="M676.45,419.87a9.54,9.54,0,0,0,.78,2.24c.34.71.75,1.37,1.12,2.15a4.37,4.37,0,0,1-1.7-1.86A3.15,3.15,0,0,1,676.45,419.87Z" transform="translate(-623.94 -325.28)"/><path d="M677.18,416.8a9.12,9.12,0,0,0,1,2.39c.42.75.89,1.47,1.32,2.29a5.33,5.33,0,0,1-1.89-2,4.73,4.73,0,0,1-.5-1.31A2.47,2.47,0,0,1,677.18,416.8Z" transform="translate(-623.94 -325.28)"/><path d="M678.79,412.86c.25.89.38,1.75.62,2.56a12.26,12.26,0,0,0,1,2.41,3.71,3.71,0,0,1-1.61-2.23A4.91,4.91,0,0,1,678.79,412.86Z" transform="translate(-623.94 -325.28)"/><path d="M680.4,410.37a16.28,16.28,0,0,0,.67,2.24c.27.71.59,1.39.94,2.15a3.72,3.72,0,0,1-1.55-1.92A3.45,3.45,0,0,1,680.4,410.37Z" transform="translate(-623.94 -325.28)"/><path d="M682,408.77l.47,1a2.85,2.85,0,0,1,.26,1.17,1.75,1.75,0,0,1-.86-.92A1.18,1.18,0,0,1,682,408.77Z" transform="translate(-623.94 -325.28)"/><path d="M683.47,406.72a23,23,0,0,1,1.16,2.06,9,9,0,0,0,1.32,1.89,3,3,0,0,1-1.89-1.58A4.9,4.9,0,0,1,683.47,406.72Z" transform="translate(-623.94 -325.28)"/><path d="M685.22,404.67a11,11,0,0,1,.67,1.12,4.57,4.57,0,0,1,.5,1.22,1.84,1.84,0,0,1-1.07-.92A1.58,1.58,0,0,1,685.22,404.67Z" transform="translate(-623.94 -325.28)"/><path d="M686.68,403.5a6.46,6.46,0,0,0,.55.94c.2.29.4.58.61.86.42.57.84,1.11,1.33,1.71a3.31,3.31,0,0,1-1.85-1.32,3.62,3.62,0,0,1-.54-1A2.09,2.09,0,0,1,686.68,403.5Z" transform="translate(-623.94 -325.28)"/><path d="M688.58,401a5.26,5.26,0,0,1,.92,1.26,12.47,12.47,0,0,1,.69,1.37,2.11,2.11,0,0,1-1.25-1A2.63,2.63,0,0,1,688.58,401Z" transform="translate(-623.94 -325.28)"/><path d="M690.63,399.26a2.4,2.4,0,0,1,.71.66,1.41,1.41,0,0,1,.31.95,1.53,1.53,0,0,1-.84-.58A1.11,1.11,0,0,1,690.63,399.26Z" transform="translate(-623.94 -325.28)"/><path d="M692.38,396.93a1,1,0,0,1,.65.33,1.07,1.07,0,0,1,.23.69.78.78,0,0,1-.73-.27A.77.77,0,0,1,692.38,396.93Z" transform="translate(-623.94 -325.28)"/><path d="M693.55,394.59c.49.65.9,1.27,1.37,1.84a16,16,0,0,0,1.56,1.66,3.2,3.2,0,0,1-2.06-1.25A3.75,3.75,0,0,1,693.55,394.59Z" transform="translate(-623.94 -325.28)"/><path d="M694.58,392.54a12.17,12.17,0,0,0,1,1.22c.35.37.72.69,1.16,1.12a2,2,0,0,1-1.63-.67A1.87,1.87,0,0,1,694.58,392.54Z" transform="translate(-623.94 -325.28)"/><path d="M695.89,389.18c.33.51.62.89.94,1.31s.62.82,1,1.32a2.22,2.22,0,0,1-1.48-.93A2,2,0,0,1,695.89,389.18Z" transform="translate(-623.94 -325.28)"/><path d="M697.5,386.11a6.37,6.37,0,0,0,.67,1.51c.27.46.6.88.94,1.41a2.26,2.26,0,0,1-1.5-1.07A1.86,1.86,0,0,1,697.5,386.11Z" transform="translate(-623.94 -325.28)"/><path d="M698.67,383.33c.27.53.49.94.73,1.39l.73,1.39a2,2,0,0,1-1.31-1.09A2,2,0,0,1,698.67,383.33Z" transform="translate(-623.94 -325.28)"/><path d="M700,381.14l1.24,1.68a9,9,0,0,1,1.1,1.83,5.1,5.1,0,0,1-1.62-1.44A3.36,3.36,0,0,1,700,381.14Z" transform="translate(-623.94 -325.28)"/><path d="M702,377.92a6.44,6.44,0,0,0,.78,1.76,11.11,11.11,0,0,1,1,1.75,4.09,4.09,0,0,1-1.54-1.41A2.22,2.22,0,0,1,702,377.92Z" transform="translate(-623.94 -325.28)"/><path d="M703.79,376a13.09,13.09,0,0,1,1.05,1.31,9,9,0,0,1,.85,1.47,2.78,2.78,0,0,1-1.38-1.09A2.65,2.65,0,0,1,703.79,376Z" transform="translate(-623.94 -325.28)"/><path d="M705.69,374.42a4.15,4.15,0,0,1,1.56.84,2.54,2.54,0,0,1,.59.71,1.39,1.39,0,0,1,.18.93,8.07,8.07,0,0,0-1.2-1.15A4.36,4.36,0,0,1,705.69,374.42Z" transform="translate(-623.94 -325.28)"/><path d="M707.73,372.66a1.86,1.86,0,0,1,1.77.14,2.72,2.72,0,0,1,1.16,1.32,9,9,0,0,1-1.49-.76A9.66,9.66,0,0,0,707.73,372.66Z" transform="translate(-623.94 -325.28)"/><path d="M711.09,371.49a5.74,5.74,0,0,1,2.22.64,4,4,0,0,1,1,.68,2,2,0,0,1,.62,1A11.43,11.43,0,0,0,713,372.7,9,9,0,0,1,711.09,371.49Z" transform="translate(-623.94 -325.28)"/><path d="M715.48,371.05a3.29,3.29,0,0,1,1.74.74,4,4,0,0,1,1.18,1.46,6,6,0,0,1-1.59-.95A9.65,9.65,0,0,1,715.48,371.05Z" transform="translate(-623.94 -325.28)"/><path d="M721.47,373.25a3.19,3.19,0,0,1,1.21,1,1.8,1.8,0,0,1,.4,1.52c-.35-.43-.63-.74-.92-1.13A3.39,3.39,0,0,1,721.47,373.25Z" transform="translate(-623.94 -325.28)"/><path d="M720.16,374.42a1.6,1.6,0,0,1,1,.78,1.46,1.46,0,0,1,.18,1.26,4.17,4.17,0,0,1-.73-.93A3.11,3.11,0,0,1,720.16,374.42Z" transform="translate(-623.94 -325.28)"/><path d="M716.21,375a2,2,0,0,1,1.24.94,1.75,1.75,0,0,1,.22,1.54c-.3-.45-.53-.81-.77-1.2A10.83,10.83,0,0,1,716.21,375Z" transform="translate(-623.94 -325.28)"/><path d="M712.85,376.46a4.46,4.46,0,0,1,1.41,1.1,4.52,4.52,0,0,1,.93,1.53,4.18,4.18,0,0,1-1.42-1.1A4.47,4.47,0,0,1,712.85,376.46Z" transform="translate(-623.94 -325.28)"/><path d="M710.36,378.8a4.21,4.21,0,0,1,1.46,1.31c.39.5.71,1,1.17,1.47a2.52,2.52,0,0,1-1.68-1.07A7.13,7.13,0,0,1,710.36,378.8Z" transform="translate(-623.94 -325.28)"/><path d="M707.73,380.85a17.14,17.14,0,0,1,1.61,1.39c.24.24.49.47.74.7a2.73,2.73,0,0,0,.87.54,1.39,1.39,0,0,1-1.14-.12,3.52,3.52,0,0,1-.92-.64A4.06,4.06,0,0,1,707.73,380.85Z" transform="translate(-623.94 -325.28)"/><path d="M707.15,384.21a4.21,4.21,0,0,0,1.14.88,4.19,4.19,0,0,1,1.2,1,3.13,3.13,0,0,1-1.55-.47,2,2,0,0,1-.61-.58A1,1,0,0,1,707.15,384.21Z" transform="translate(-623.94 -325.28)"/><path d="M705.39,386.25c.5.46.94.81,1.41,1.18a7.65,7.65,0,0,1,1.37,1.31,3.82,3.82,0,0,1-1.77-.8A2.48,2.48,0,0,1,705.39,386.25Z" transform="translate(-623.94 -325.28)"/><path d="M703.79,389.76a2.76,2.76,0,0,1,1.54.74c.21.18.41.36.59.54a2.44,2.44,0,0,0,.64.48,1.07,1.07,0,0,1-.91,0,3.11,3.11,0,0,1-.74-.47A8.36,8.36,0,0,1,703.79,389.76Z" transform="translate(-623.94 -325.28)"/><path d="M703.64,392.69a2.25,2.25,0,0,1,1.32.54,11.76,11.76,0,0,1,1,.92,1.72,1.72,0,0,1-1.41-.4A3.82,3.82,0,0,1,703.64,392.69Z" transform="translate(-623.94 -325.28)"/><path d="M703.2,394.88a2.78,2.78,0,0,1,1,.47,6.8,6.8,0,0,1,.86.7,1.26,1.26,0,0,1-1.22-.16A1.55,1.55,0,0,1,703.2,394.88Z" transform="translate(-623.94 -325.28)"/><path d="M702.47,397.22a2.67,2.67,0,0,1,1,.42c.14.1.28.19.41.3a1.85,1.85,0,0,0,.45.3.72.72,0,0,1-.64.17,1.41,1.41,0,0,1-.57-.22A1.55,1.55,0,0,1,702.47,397.22Z" transform="translate(-623.94 -325.28)"/><path d="M700.72,399.26a3.15,3.15,0,0,1,1.49.64,10.47,10.47,0,0,0,1.28.83,1.3,1.3,0,0,1-.87.07,2.53,2.53,0,0,1-.78-.36A4.5,4.5,0,0,1,700.72,399.26Z" transform="translate(-623.94 -325.28)"/><path d="M700.57,401.46a3.39,3.39,0,0,1,1.1.61,8.4,8.4,0,0,0,1,.7,1.2,1.2,0,0,1-1.35-.18A1.92,1.92,0,0,1,700.57,401.46Z" transform="translate(-623.94 -325.28)"/><path d="M697.21,401.9c.73.61,1.37,1.25,2,1.86.33.3.67.59,1,.86a3.45,3.45,0,0,0,1.18.64,2.07,2.07,0,0,1-1.44-.2,5.31,5.31,0,0,1-1.2-.82A5.87,5.87,0,0,1,697.21,401.9Z" transform="translate(-623.94 -325.28)"/><path d="M696.77,405.11a16.47,16.47,0,0,1,1.59,1.11c.25.2.49.39.73.61s.46.42.75.62a1.88,1.88,0,0,1-1-.19,4.73,4.73,0,0,1-.86-.53A3.35,3.35,0,0,1,696.77,405.11Z" transform="translate(-623.94 -325.28)"/><path d="M696.77,407.89a3.7,3.7,0,0,1,1.19.6,5.16,5.16,0,0,1,1,.86,1.78,1.78,0,0,1-1.37-.33A2.06,2.06,0,0,1,696.77,407.89Z" transform="translate(-623.94 -325.28)"/><path d="M694.14,409.06a8.06,8.06,0,0,0,1.4,1.4,17.09,17.09,0,0,1,1.52,1.37,3.7,3.7,0,0,1-1.94-.87A2.4,2.4,0,0,1,694.14,409.06Z" transform="translate(-623.94 -325.28)"/><path d="M692.38,410.81a7.62,7.62,0,0,0,1.46,1.62,9.36,9.36,0,0,1,1.61,1.6,5.84,5.84,0,0,1-2-1.11A2.7,2.7,0,0,1,692.38,410.81Z" transform="translate(-623.94 -325.28)"/><path d="M689,411.54a9.51,9.51,0,0,0,2.33,2.28,12.61,12.61,0,0,1,2.5,2.25,19.31,19.31,0,0,1-2.9-1.73,7,7,0,0,1-1.23-1.21A3.31,3.31,0,0,1,689,411.54Z" transform="translate(-623.94 -325.28)"/><path d="M688.14,414.47a15.47,15.47,0,0,1,2.24,1.35c.7.49,1.39.94,2.15,1.42a4.47,4.47,0,0,1-2.52-.88A7,7,0,0,1,688.14,414.47Z" transform="translate(-623.94 -325.28)"/><path d="M688.44,416.66a4.17,4.17,0,0,0,1.47,1,15.24,15.24,0,0,1,1.64.86l-.09.29a1.1,1.1,0,0,1-.39-.38c.18,0,.32.12.46.09l-.09.28a5.06,5.06,0,0,1-1.83-.57,2.93,2.93,0,0,1-.79-.62A1.41,1.41,0,0,1,688.44,416.66Z" transform="translate(-623.94 -325.28)"/><path d="M685.81,417.1a20.21,20.21,0,0,1,1.78,1.43c.57.49,1.13,1,1.72,1.49a3.91,3.91,0,0,1-2.14-1A4.45,4.45,0,0,1,685.81,417.1Z" transform="translate(-623.94 -325.28)"/><path d="M684.64,419.44a6.91,6.91,0,0,1,1.34.63,3.56,3.56,0,0,1,1.14,1,2.9,2.9,0,0,1-1.48-.42A2.17,2.17,0,0,1,684.64,419.44Z" transform="translate(-623.94 -325.28)"/><path d="M683.18,421a5.78,5.78,0,0,1,1.16.73c.34.28.64.53,1,.88a1.67,1.67,0,0,1-1.43-.36A2,2,0,0,1,683.18,421Z" transform="translate(-623.94 -325.28)"/><path d="M682.15,423.09a2.81,2.81,0,0,1,.93.5,2.59,2.59,0,0,1,.68.82,1.43,1.43,0,0,1-1.61-1.32Z" transform="translate(-623.94 -325.28)"/><path d="M680.54,424.7a2.44,2.44,0,0,1,.84.46,3.25,3.25,0,0,1,.63.71,1,1,0,0,1-1-.21A1.15,1.15,0,0,1,680.54,424.7Z" transform="translate(-623.94 -325.28)"/><path d="M684.93,433a4.19,4.19,0,0,1,1.49,1,2.87,2.87,0,0,1,.85,1.62,11.69,11.69,0,0,1-1.32-1.17A4.89,4.89,0,0,1,684.93,433Z" transform="translate(-623.94 -325.28)"/><path d="M687.27,431.13a8.34,8.34,0,0,1,2.14,2.05,5.3,5.3,0,0,1,1.07,2.77c-.53-.85-1-1.62-1.6-2.39A20.07,20.07,0,0,1,687.27,431.13Z" transform="translate(-623.94 -325.28)"/><path d="M689.9,429.52a11.62,11.62,0,0,1,3,2.52,7.48,7.48,0,0,1,1,1.7,15,15,0,0,1,.72,1.77A16.85,16.85,0,0,1,693.4,434c-.35-.51-.66-1-1.06-1.51C691.59,431.46,690.65,430.59,689.9,429.52Z" transform="translate(-623.94 -325.28)"/><path d="M695.6,429.52c.37.39.76.73,1.12,1.12a13.19,13.19,0,0,1,1,1.18,7.64,7.64,0,0,1,.88,1.35,1.84,1.84,0,0,1,.17,1.61,2.46,2.46,0,0,0-.61-1.35c-.3-.4-.62-.81-1-1.21A9.18,9.18,0,0,1,695.6,429.52Z" transform="translate(-623.94 -325.28)"/><path d="M700.57,429.52a3.21,3.21,0,0,1,2,1.69,5.16,5.16,0,0,1,.61,2.55c-.48-.76-.79-1.53-1.18-2.24A8.27,8.27,0,0,0,700.57,429.52Z" transform="translate(-623.94 -325.28)"/><path d="M701.3,426a7.41,7.41,0,0,1,3.43,2.57,9.26,9.26,0,0,1,1.9,3.86v0l0,0a.28.28,0,0,1-.08.06c-.12,0-.1-.09-.1-.09a.47.47,0,0,0,0-.17.4.4,0,0,1,.08.16s0,0,0,0l0-.06v.06a25.16,25.16,0,0,0-2.3-3.5A15.78,15.78,0,0,0,701.3,426Z" transform="translate(-623.94 -325.28)"/><path d="M706.56,426.74a2.68,2.68,0,0,1,1.21.77,5.28,5.28,0,0,1,.84,1.16,4.56,4.56,0,0,1,.58,2.75c-.17-.44-.37-.84-.56-1.25s-.39-.8-.6-1.19-.42-.78-.65-1.15A8.18,8.18,0,0,0,706.56,426.74Z" transform="translate(-623.94 -325.28)"/><path d="M707,422.21a15.21,15.21,0,0,1,3.6,2.83,11.45,11.45,0,0,1,1.44,1.81,5.22,5.22,0,0,1,.5,1.07,1.66,1.66,0,0,1,0,1.16,3.35,3.35,0,0,0-.94-1.94c-.47-.57-1-1.12-1.49-1.66C709.1,424.4,708,423.35,707,422.21Z" transform="translate(-623.94 -325.28)"/><path d="M712.26,422.51a7.24,7.24,0,0,1,2.17,1.95,6.7,6.7,0,0,1,.76,1.26,2.94,2.94,0,0,1,.29,1.46,8.1,8.1,0,0,0-.73-1.21c-.28-.37-.55-.75-.84-1.12A25.64,25.64,0,0,1,712.26,422.51Z" transform="translate(-623.94 -325.28)"/><path d="M712.7,418.7a12,12,0,0,1,3.41,2.59,9.16,9.16,0,0,1,2.15,3.7,34,34,0,0,0-2.63-3.26C714.7,420.7,713.68,419.75,712.7,418.7Z" transform="translate(-623.94 -325.28)"/><path d="M713.58,415.34a7,7,0,0,1,2.32,1.09,15.55,15.55,0,0,1,2,1.65c.61.6,1.18,1.2,1.75,1.84a5.86,5.86,0,0,1,.75,1.07c.1.2.17.4.25.6l.11.29c0,.07.08.26.17.19s-.11,0-.14,0l-.11-.12-.19-.26a4.67,4.67,0,0,0-.36-.51,8.89,8.89,0,0,0-.85-.89c-.62-.55-1.23-1.15-1.83-1.73A21.83,21.83,0,0,0,713.58,415.34Z" transform="translate(-623.94 -325.28)"/><path d="M719.43,415.93a9.25,9.25,0,0,1,2,1.88,7.63,7.63,0,0,1,.76,1.15,2.45,2.45,0,0,1,.34,1.35,5.56,5.56,0,0,0-.77-1.08l-.84-1A11,11,0,0,1,719.43,415.93Z" transform="translate(-623.94 -325.28)"/><path d="M718,411a9.09,9.09,0,0,1,4.16,2.56,10,10,0,0,1,2.57,4.16,24.79,24.79,0,0,0-3-3.7A19.69,19.69,0,0,0,718,411Z" transform="translate(-623.94 -325.28)"/><path d="M722.93,409.93a14.2,14.2,0,0,1,2.27,2.18,7.21,7.21,0,0,1,.86,1.35,2.33,2.33,0,0,1,.24,1.59,3.69,3.69,0,0,0-.68-1.34c-.29-.4-.61-.8-.93-1.19A12.83,12.83,0,0,1,722.93,409.93Z" transform="translate(-623.94 -325.28)"/><path d="M720.89,404.53a11.37,11.37,0,0,1,4.54,3,11,11,0,0,1,1.66,2.18,5.4,5.4,0,0,1,.81,2.6,8.42,8.42,0,0,0-1.24-2.33,18.92,18.92,0,0,0-1.7-2c-.61-.63-1.27-1.23-1.94-1.8A21.23,21.23,0,0,0,720.89,404.53Z" transform="translate(-623.94 -325.28)"/><path d="M720.59,400.87a2.92,2.92,0,0,1,1.65.18,8.28,8.28,0,0,1,1.5.72,17.21,17.21,0,0,1,2.65,2,19,19,0,0,1,2.22,2.44,8.44,8.44,0,0,1,1.55,2.93l-.1,0a1.49,1.49,0,0,0-.26-.41,1.23,1.23,0,0,1,.36.36l-.1,0a11.7,11.7,0,0,0-1.86-2.61c-.73-.81-1.46-1.6-2.25-2.32a28.38,28.38,0,0,0-2.48-2.05,10.62,10.62,0,0,0-1.35-.86A3.29,3.29,0,0,0,720.59,400.87Z" transform="translate(-623.94 -325.28)"/><path d="M722.5,397.51a16.25,16.25,0,0,1,5.56,3.24,17,17,0,0,1,2.18,2.39,15.77,15.77,0,0,1,.93,1.33,2.82,2.82,0,0,1,.53,1.52,3.06,3.06,0,0,0-.79-1.34c-.34-.4-.7-.79-1.06-1.18a29.46,29.46,0,0,0-2.23-2.24A37.43,37.43,0,0,0,722.5,397.51Z" transform="translate(-623.94 -325.28)"/><path d="M726.73,395a10.29,10.29,0,0,1,4.21,2.18,10.87,10.87,0,0,1,1.68,1.71,5.87,5.87,0,0,1,1.13,2.1,12.26,12.26,0,0,0-1.51-1.77c-.55-.53-1.12-1.05-1.72-1.54A30.35,30.35,0,0,0,726.73,395Z" transform="translate(-623.94 -325.28)"/><path d="M730.1,392.39a7.74,7.74,0,0,1,3,1.78,5,5,0,0,1,1.68,3.05,11.31,11.31,0,0,0-2.13-2.57C731.84,393.87,731,393.18,730.1,392.39Z" transform="translate(-623.94 -325.28)"/><path d="M729.36,388.16a4.59,4.59,0,0,1,2.2.57,10.4,10.4,0,0,1,1.92,1.22,9.49,9.49,0,0,1,1.61,1.62,5.3,5.3,0,0,1,.6,1,1.67,1.67,0,0,1,.11,1.14,3.25,3.25,0,0,0-1.09-1.81c-.52-.51-1.07-1-1.64-1.44a20.38,20.38,0,0,0-1.76-1.29A7.68,7.68,0,0,0,729.36,388.16Z" transform="translate(-623.94 -325.28)"/><path d="M730.24,384.94a3.63,3.63,0,0,1,2.16.16,7.3,7.3,0,0,1,3.46,2.6,3.24,3.24,0,0,1,.67,2.06,4.58,4.58,0,0,0-1.07-1.74,10.87,10.87,0,0,0-1.52-1.36,12,12,0,0,0-1.73-1.1A5.75,5.75,0,0,0,730.24,384.94Z" transform="translate(-623.94 -325.28)"/><path d="M731,381.29a2.59,2.59,0,0,1,1.69.13,6,6,0,0,1,1.48.83,6.7,6.7,0,0,1,1.19,1.19,3.75,3.75,0,0,1,.76,1.5,9.56,9.56,0,0,0-1.13-1.16c-.4-.35-.8-.7-1.22-1a12.46,12.46,0,0,0-1.3-.89A4.06,4.06,0,0,0,731,381.29Z" transform="translate(-623.94 -325.28)"/><path d="M682.74,426.45a2,2,0,0,1,1.14.72,2.56,2.56,0,0,1,.61,1.18,2.43,2.43,0,0,1-1.1-.75A3.23,3.23,0,0,1,682.74,426.45Z" transform="translate(-623.94 -325.28)"/><path d="M684.78,423.82a20.64,20.64,0,0,0,1.43,1.62,4.54,4.54,0,0,1,1.2,1.89,13,13,0,0,1-1.68-1.45A3.11,3.11,0,0,1,684.78,423.82Z" transform="translate(-623.94 -325.28)"/><path d="M687.27,421.77a6.25,6.25,0,0,1,2.1,1.44,4.2,4.2,0,0,1,1.26,2.22c-.58-.64-1.15-1.18-1.72-1.77A15.14,15.14,0,0,1,687.27,421.77Z" transform="translate(-623.94 -325.28)"/><path d="M690.48,419.58a4.73,4.73,0,0,0,1.22,1.68,7.53,7.53,0,0,1,1.41,1.68,6.1,6.1,0,0,1-1.87-1.22,3,3,0,0,1-.67-1A1.64,1.64,0,0,1,690.48,419.58Z" transform="translate(-623.94 -325.28)"/><path d="M692.82,418a4.78,4.78,0,0,0,.85,1.24c.34.36.69.71,1.06,1,.75.67,1.51,1.3,2.33,2a5.91,5.91,0,0,1-2.76-1.48,5.75,5.75,0,0,1-1-1.22A2.57,2.57,0,0,1,692.82,418Z" transform="translate(-623.94 -325.28)"/><path d="M694.58,416.37a16.82,16.82,0,0,0,1.64,1.06,5.85,5.85,0,0,1,1.57,1.27,5.43,5.43,0,0,1-1.92-.71A2.65,2.65,0,0,1,694.58,416.37Z" transform="translate(-623.94 -325.28)"/><path d="M696.62,414a3.85,3.85,0,0,1,2.51.47,4.61,4.61,0,0,1,1,.76,2.41,2.41,0,0,1,.68,1.11,6.54,6.54,0,0,0-1-.71c-.34-.21-.68-.4-1-.59C698.12,414.7,697.41,414.36,696.62,414Z" transform="translate(-623.94 -325.28)"/><path d="M698.23,411.4a5.33,5.33,0,0,1,2.59.47,2.92,2.92,0,0,1,1.06.89,2.34,2.34,0,0,1,.44,1.27,4.73,4.73,0,0,0-1.8-1.58C699.82,412.09,699,411.85,698.23,411.4Z" transform="translate(-623.94 -325.28)"/><path d="M700.13,408.33a4.27,4.27,0,0,1,2.23.49,7.63,7.63,0,0,1,1.86,1.26,6.22,6.22,0,0,1-2.15-.68A20.77,20.77,0,0,1,700.13,408.33Z" transform="translate(-623.94 -325.28)"/><path d="M701.74,405.55a2.54,2.54,0,0,1,2,0,2.86,2.86,0,0,1,1.56,1.18c-.65-.18-1.2-.37-1.77-.57S702.38,405.75,701.74,405.55Z" transform="translate(-623.94 -325.28)"/><path d="M703.05,402.48a4.92,4.92,0,0,1,2.69,0,3.55,3.55,0,0,1,1.25.61,1.81,1.81,0,0,1,.74,1.16,3.17,3.17,0,0,0-1-.73,7.59,7.59,0,0,0-1.16-.41C704.76,402.86,703.93,402.72,703.05,402.48Z" transform="translate(-623.94 -325.28)"/><path d="M704.22,400a4.62,4.62,0,0,1,1.78.06,2.81,2.81,0,0,1,.85.38,1.37,1.37,0,0,1,.59.73,9.29,9.29,0,0,0-1.6-.47A4.19,4.19,0,0,1,704.22,400Z" transform="translate(-623.94 -325.28)"/><path d="M705.1,396.63a7.92,7.92,0,0,1,2.63,1.12,12,12,0,0,0,2.49,1.22,2.87,2.87,0,0,1-1.48-.07,5.67,5.67,0,0,1-1.33-.59A18.9,18.9,0,0,1,705.1,396.63Z" transform="translate(-623.94 -325.28)"/><path d="M706.27,394.44a9.59,9.59,0,0,1,1.54.75,9.41,9.41,0,0,1,1.38,1,2.78,2.78,0,0,1-1.72-.44A2.83,2.83,0,0,1,706.27,394.44Z" transform="translate(-623.94 -325.28)"/><path d="M707.15,391.08c.64.61,1.14,1.27,1.72,1.83a12,12,0,0,0,1.93,1.53,3.48,3.48,0,0,1-2.39-1.07A4.72,4.72,0,0,1,707.15,391.08Z" transform="translate(-623.94 -325.28)"/><path d="M708.46,388.89A3.4,3.4,0,0,1,711,389a3.89,3.89,0,0,1,1.9,1.61c-.76-.37-1.44-.71-2.15-1A12.8,12.8,0,0,0,708.46,388.89Z" transform="translate(-623.94 -325.28)"/><path d="M709.78,386.55c.13-.24.43-.28.68-.34a3.85,3.85,0,0,1,.76,0,6.36,6.36,0,0,1,1.44.38,7,7,0,0,1,1.31.67,3.19,3.19,0,0,1,1.07,1,10.88,10.88,0,0,0-1.31-.58l-1.31-.51c-.43-.18-.87-.34-1.31-.49A2.06,2.06,0,0,0,709.78,386.55Z" transform="translate(-623.94 -325.28)"/><path d="M711.24,384.06a2.71,2.71,0,0,1,1.92-.07,2.66,2.66,0,0,1,1.59,1.1c-.64-.17-1.19-.31-1.77-.48S711.87,384.27,711.24,384.06Z" transform="translate(-623.94 -325.28)"/><path d="M713.14,381.72a4.5,4.5,0,0,1,1.79-.06,9.27,9.27,0,0,1,1.73.41,8.25,8.25,0,0,1,1.63.74,3.08,3.08,0,0,1,1.28,1.25,5.62,5.62,0,0,0-1.51-.8c-.53-.2-1.06-.4-1.61-.58s-1.08-.35-1.63-.52A14.76,14.76,0,0,0,713.14,381.72Z" transform="translate(-623.94 -325.28)"/><path d="M715.19,380a7.11,7.11,0,0,1,2.48.2,5.3,5.3,0,0,1,1.18.45,1.56,1.56,0,0,1,.87,1,2.51,2.51,0,0,0-1.06-.49l-1.15-.29A10.24,10.24,0,0,1,715.19,380Z" transform="translate(-623.94 -325.28)"/><path d="M717.67,378.07a4,4,0,0,1,2.43.1,5.28,5.28,0,0,1,2.1,1.21,16,16,0,0,1-2.29-.59C719.16,378.56,718.46,378.31,717.67,378.07Z" transform="translate(-623.94 -325.28)"/><path d="M721.18,376.61a4.12,4.12,0,0,1,2.64-.06,6.3,6.3,0,0,1,2.33,1.23,18.29,18.29,0,0,1-2.5-.6A22.87,22.87,0,0,0,721.18,376.61Z" transform="translate(-623.94 -325.28)"/><path class="cls-3" d="M657.09,332.42c3.49-1.63,11.33-.46,11.33,5.4,0,5.07-3.48,11.29-4.78,16.13a215.52,215.52,0,0,0-7.25,43.4c-.71,11-5.38,17.94-13.57,12.65-9.92-6.41-12.84-20-11.15-31a134.08,134.08,0,0,1,3.6-15.16c1.56-5.62,3.11-12,5.61-17.28C644.29,339.41,649.46,335.44,657.09,332.42Z" transform="translate(-623.94 -325.28)"/><path d="M657.29,333.13c2.72-1,7.08-1,9.16,1.49,3,3.54-.13,9.79-1.52,13.43a133.19,133.19,0,0,0-5.83,22.19,215.73,215.73,0,0,0-3.19,23.5c-.47,5.78-1.06,20.28-10.59,16.69C630.42,404.8,630.88,384,634,371.59c1.81-7.29,3.59-14.85,6.36-21.85,3.24-8.2,8.9-13.28,17-16.61.87-.36.49-1.79-.39-1.43-5.55,2.29-10.61,5.28-14.16,10.24-4.36,6.11-6,13.83-8,20.95-3.59,13.11-7.27,27.22.17,39.8,4.26,7.21,15.25,15.12,20.15,4.22,3-6.7,2.33-15,3.21-22.14A214.71,214.71,0,0,1,663.86,356c1.51-5.73,7.75-15.19,4.58-21.1-2.09-3.9-7.73-4.67-11.54-3.21C656,332,656.4,333.47,657.29,333.13Z" transform="translate(-623.94 -325.28)"/><path class="cls-3" d="M668.21,336.28a5.36,5.36,0,0,1,.21,1.54c0,5.07-3.48,11.29-4.78,16.13a215.52,215.52,0,0,0-7.25,43.4c-.38,5.86-1.87,10.55-4.41,12.87,2.56,8.1,17.36,4.09,21.68-3,6.25-10.26,2.81-19.67,5.55-35.47C683.22,348.62,679.19,331.28,668.21,336.28Z" transform="translate(-623.94 -325.28)"/><path d="M667.47,336.28c.8,6.06-2.89,11.82-4.55,17.47a184.76,184.76,0,0,0-4.32,19.19q-1.53,8.55-2.37,17.2c-.63,6.43,0,14.53-4.77,19.56a.74.74,0,0,0-.19.72c3,7.55,13,5.25,18.38,1.75,8.81-5.77,8.73-17.37,9-26.72.23-6.83,10.15-58.43-10.67-49.89-.87.36-.49,1.79.39,1.43,14.94-6.13,11.38,26.24,10.38,32.8A214.35,214.35,0,0,0,677,391.56c-.37,7.31-1.87,15.47-8.58,19.62a17.5,17.5,0,0,1-9.36,2.79c-1.66-.05-4.18-.41-5.22-1.94-1.5-2.18-.25-2,.47-3.62,3-6.71,2.87-13.73,3.67-21a216,216,0,0,1,5.16-28.66c1.77-7.11,6.78-15.08,5.8-22.51C668.83,335.34,667.35,335.33,667.47,336.28Z" transform="translate(-623.94 -325.28)"/><g class="cls-6"><path class="cls-5" d="M663.86,332.25c1.26,3.26,1.62,6.51,0,9.77-9,17-8,35-14,53-1,4-9,7-14,4a20.43,20.43,0,0,1-3.56-4.91c1.58,6.4,4.94,12.29,10.52,15.89,8.19,5.29,12.86-1.6,13.57-12.65a215.52,215.52,0,0,1,7.25-43.4c1.3-4.84,4.78-11.06,4.78-16.13C668.42,334.81,666.34,333,663.86,332.25Z" transform="translate(-623.94 -325.28)"/></g><g class="cls-6"><path class="cls-5" d="M659.86,406c-2-24.32,5.57-47.69,14.26-70.11a7.07,7.07,0,0,0-5.91.36,5.48,5.48,0,0,1,.21,1.55c0,5.07-3.48,11.29-4.78,16.13a215.52,215.52,0,0,0-7.25,43.4c-.38,5.86-1.87,10.55-4.41,12.87,2.34,7.4,14.89,4.7,20.33-1.23C667.37,410.7,660.57,408.87,659.86,406Z" transform="translate(-623.94 -325.28)"/></g><path d="M636.55,403.8l.42.1c.27.07.63.16,1.08.24a21.15,21.15,0,0,0,3.29.35,28.92,28.92,0,0,0,3.32-.08l1.1-.12.43-.06a5.61,5.61,0,0,1-1.43.66,10.25,10.25,0,0,1-3.45.47,9.33,9.33,0,0,1-3.41-.75,5.87,5.87,0,0,1-1-.55Z" transform="translate(-623.94 -325.28)"/><path d="M634.5,399.26l.46.06c.3.05.7.09,1.19.13a20.79,20.79,0,0,0,3.55-.09c1.3-.12,2.63-.25,3.64-.24a10.1,10.1,0,0,1,1.68.14s-.66.16-1.63.36a33.82,33.82,0,0,1-3.61.6c-.34,0-.68,0-1,0s-.67,0-1,0a8.11,8.11,0,0,1-1.72-.32,6.5,6.5,0,0,1-1.15-.44Z" transform="translate(-623.94 -325.28)"/><path d="M632.6,394.73s.77-.15,1.94-.27,2.71-.21,4.27-.23,3.1,0,4.27.13,1.94.23,1.94.23-.77.15-1.93.27-2.72.21-4.27.23-3.11,0-4.27-.13S632.6,394.73,632.6,394.73Z" transform="translate(-623.94 -325.28)"/><path d="M632,389.91s.59-.18,1.49-.35a22.36,22.36,0,0,1,3.32-.37,14.33,14.33,0,0,1,3.36.26,7,7,0,0,1,1.47.46l-4.8.14c-1.2,0-2.41.05-3.32,0A11.62,11.62,0,0,1,632,389.91Z" transform="translate(-623.94 -325.28)"/><path d="M631.87,386.55a2.5,2.5,0,0,1,.43-.38,5,5,0,0,1,1.38-.63,16.76,16.76,0,0,1,2.07-.42c.74-.13,1.56-.25,2.37-.34a22.17,22.17,0,0,1,2.42-.1,11.91,11.91,0,0,1,2.12.24,7.58,7.58,0,0,1,1.43.48c.32.16.5.27.5.27a10.14,10.14,0,0,0-2-.25,32.22,32.22,0,0,0-4.38.23c-.8.07-1.6.17-2.37.23s-1.46.08-2.06.15a7.31,7.31,0,0,0-1.4.29A3.1,3.1,0,0,0,631.87,386.55Z" transform="translate(-623.94 -325.28)"/><path d="M631.58,381.87l.33-.37a4.26,4.26,0,0,1,1.15-.7,8.24,8.24,0,0,1,.84-.29,7.23,7.23,0,0,1,1-.21,14.34,14.34,0,0,1,2.11-.23,22.29,22.29,0,0,1,3.95.25,15.05,15.05,0,0,1,1.76.38s-.73.08-1.79.12-2.48.07-3.88.12a25,25,0,0,0-3.81.34l-.69.17-.51.18Z" transform="translate(-623.94 -325.28)"/><path d="M632.45,376.75l.33-.24a4.62,4.62,0,0,1,1-.47,10.15,10.15,0,0,1,3.2-.49,13.34,13.34,0,0,1,3.19.4,7.34,7.34,0,0,1,1.38.51l-4.57,0c-1.13,0-2.25,0-3.09.1-.42.05-.76.1-1,.15Z" transform="translate(-623.94 -325.28)"/><path d="M633.18,372.22a3.42,3.42,0,0,1,.9-.64,7.42,7.42,0,0,1,2.26-.72,8.62,8.62,0,0,1,2.36-.05,4.81,4.81,0,0,1,1.06.24s-.42.13-1,.26-1.43.28-2.25.41l-2.24.33Z" transform="translate(-623.94 -325.28)"/><path d="M634.5,367a2.75,2.75,0,0,1,.91-.62,6,6,0,0,1,2.34-.5A5.49,5.49,0,0,1,639,366a3.91,3.91,0,0,1,1.08.39,2.63,2.63,0,0,1,.64.5c.12.17.17.26.17.26l-.27-.11a3.82,3.82,0,0,0-.71-.18,13.18,13.18,0,0,0-2.19-.12l-1.18,0-1,.08A9.82,9.82,0,0,0,634.5,367Z" transform="translate(-623.94 -325.28)"/><path d="M636.11,360.68l.25-.25a3.89,3.89,0,0,1,.78-.51,7.17,7.17,0,0,1,5.48-.21,4.16,4.16,0,0,1,.82.45l.27.22-.34-.06c-.21,0-.51-.08-.87-.12a19.6,19.6,0,0,0-2.61-.06c-.47,0-.94.05-1.38.09s-.86.1-1.21.16-.64.13-.86.19Z" transform="translate(-623.94 -325.28)"/><path d="M637.72,355.27l.39-.3a7.59,7.59,0,0,1,1.14-.64,10.25,10.25,0,0,1,1.76-.62c.34-.06.68-.16,1-.19s.72-.07,1.08-.1a10.51,10.51,0,0,1,3.93.61,8,8,0,0,1,1.2.54l.42.26-.48-.1c-.31-.06-.74-.14-1.26-.22a20.79,20.79,0,0,0-3.78-.22c-.68,0-1.36.1-2,.17-.32.07-.63.09-.92.16s-.57.11-.82.18c-.51.12-.93.23-1.23.33Z" transform="translate(-623.94 -325.28)"/><path d="M639.91,348.1a3.54,3.54,0,0,1,.48-.33,7.05,7.05,0,0,1,1.44-.62,9.27,9.27,0,0,1,2.19-.36,10.59,10.59,0,0,1,1.26,0l.64.06c.22,0,.46.07.67.13a9.52,9.52,0,0,1,2.37,1c.7.4,1.32.8,1.85,1.14,1.05.67,1.82,1,1.82,1a8.05,8.05,0,0,1-2-.61c-.6-.24-1.26-.57-2-.9a11.86,11.86,0,0,0-2.23-.82,5.59,5.59,0,0,0-.56-.12l-.6-.08c-.4,0-.8-.06-1.18-.07a15.19,15.19,0,0,0-2.1.09A8.61,8.61,0,0,0,639.91,348.1Z" transform="translate(-623.94 -325.28)"/><path d="M644.59,341.82l.47-.24a3.33,3.33,0,0,1,.58-.23,4.14,4.14,0,0,1,.79-.2,4.86,4.86,0,0,1,1-.11,8.12,8.12,0,0,1,1.09,0,7.89,7.89,0,0,1,1.14.22,9.93,9.93,0,0,1,1.13.37,10.56,10.56,0,0,1,1.07.52,9.32,9.32,0,0,1,1,.6,11.78,11.78,0,0,1,1.54,1.31,8.53,8.53,0,0,1,.91,1.08l.31.44-.43-.32c-.27-.21-.65-.5-1.12-.82-.23-.17-.49-.33-.76-.51s-.57-.34-.86-.53a16.25,16.25,0,0,0-2-1,9.74,9.74,0,0,0-1-.37c-.35-.11-.69-.19-1-.27s-.67-.13-1-.14a7.18,7.18,0,0,0-.9-.05,8.06,8.06,0,0,0-1.36.1Z" transform="translate(-623.94 -325.28)"/><path d="M649.26,337l.48-.06a5.15,5.15,0,0,1,1.28,0,7.36,7.36,0,0,1,1.77.46,9.76,9.76,0,0,1,.93.44c.31.16.61.36.91.54a22.43,22.43,0,0,1,2.92,2.46c.74.72,1.21,1.24,1.21,1.24a12.46,12.46,0,0,1-1.52-.84c-.88-.56-2-1.39-3.09-2.14a13.73,13.73,0,0,0-3.24-1.67,11.14,11.14,0,0,0-1.18-.35Z" transform="translate(-623.94 -325.28)"/><path d="M655.11,333.34a9.94,9.94,0,0,1,1.66.11,13.41,13.41,0,0,1,3.53,1,9.62,9.62,0,0,1,1.71,1,7.12,7.12,0,0,1,.7.61,5.1,5.1,0,0,1,.54.64,3.25,3.25,0,0,1,.35.61,1.91,1.91,0,0,1,.19.51,4.55,4.55,0,0,1,.09.45l-.25-.38a2.42,2.42,0,0,0-.31-.4,3.84,3.84,0,0,0-.45-.46,7.41,7.41,0,0,0-.58-.48c-.23-.15-.45-.32-.71-.46s-.52-.3-.8-.45-.56-.28-.85-.41c-.57-.27-1.17-.52-1.73-.74l-1.55-.6C655.73,333.59,655.11,333.34,655.11,333.34Z" transform="translate(-623.94 -325.28)"/><path d="M651,404.09s.3-.18.7-.38.95-.47,1.5-.71,1.11-.45,1.55-.6.78-.21.78-.21a2.81,2.81,0,0,1-.52.64,5.07,5.07,0,0,1-1.47,1,4.7,4.7,0,0,1-1.72.39A2.28,2.28,0,0,1,651,404.09Z" transform="translate(-623.94 -325.28)"/><path d="M641.66,408.77a6.08,6.08,0,0,1,.69-.24c.41-.12.92-.25,1.45-.36a9.93,9.93,0,0,1,1.51-.18,4.49,4.49,0,0,1,.74,0,2.72,2.72,0,0,1-.6.44A4.67,4.67,0,0,1,644,409a4.09,4.09,0,0,1-1.6,0A2.49,2.49,0,0,1,641.66,408.77Z" transform="translate(-623.94 -325.28)"/><path d="M652.63,398.09a2.59,2.59,0,0,1,.57-.31,4.84,4.84,0,0,1,1.29-.34,4.74,4.74,0,0,1,1.32,0,2.49,2.49,0,0,1,.62.18,2.85,2.85,0,0,1-.58.31,4.84,4.84,0,0,1-1.29.34,4.74,4.74,0,0,1-1.32,0A2.5,2.5,0,0,1,652.63,398.09Z" transform="translate(-623.94 -325.28)"/><path d="M650.29,393.71s.41-.13,1-.26,1.38-.28,2.18-.37a10.55,10.55,0,0,1,2.24,0,4.56,4.56,0,0,1,1,.21,9.09,9.09,0,0,1-1,.29,18.9,18.9,0,0,1-2.18.39,10.54,10.54,0,0,1-2.25,0A4.4,4.4,0,0,1,650.29,393.71Z" transform="translate(-623.94 -325.28)"/><path d="M650.73,389.32s.38-.14.94-.29a11.55,11.55,0,0,1,2.1-.4,5.51,5.51,0,0,1,2.2.21,2.63,2.63,0,0,1,.89.48l-1,0c-.56,0-1.29.09-2,.15a11,11,0,0,1-2.13,0A3.77,3.77,0,0,1,650.73,389.32Z" transform="translate(-623.94 -325.28)"/><path d="M653.5,385.52a3.11,3.11,0,0,1,.6-.25,4.41,4.41,0,0,1,1.33-.18,3.3,3.3,0,0,1,1.34.33,1.79,1.79,0,0,1,.53.4,5.22,5.22,0,0,1-.63.09,8.36,8.36,0,0,1-1.27,0,6.15,6.15,0,0,1-1.3-.19A2.51,2.51,0,0,1,653.5,385.52Z" transform="translate(-623.94 -325.28)"/><path d="M654.53,381.14a1.69,1.69,0,0,1,.55-.21,2.79,2.79,0,0,1,1.21,0,2.55,2.55,0,0,1,1.1.56,1.17,1.17,0,0,1,.35.49l-.56,0a7.23,7.23,0,0,1-1.1-.17,5.46,5.46,0,0,1-1.06-.39A3.4,3.4,0,0,1,654.53,381.14Z" transform="translate(-623.94 -325.28)"/><path d="M655.7,376a3,3,0,0,1,.61-.11,4.16,4.16,0,0,1,1.28.09,3,3,0,0,1,1.2.56,1.63,1.63,0,0,1,.41.49s-.27,0-.61,0a8.76,8.76,0,0,1-1.2-.18,4.61,4.61,0,0,1-1.19-.44A2.13,2.13,0,0,1,655.7,376Z" transform="translate(-623.94 -325.28)"/><path d="M656.28,372.22l.58.07a6.26,6.26,0,0,1,1.14.3,2.84,2.84,0,0,1,1,.7,1.36,1.36,0,0,1,.31.54s-.26,0-.57-.11a8.53,8.53,0,0,1-1.11-.32,3.16,3.16,0,0,1-1-.67A1.27,1.27,0,0,1,656.28,372.22Z" transform="translate(-623.94 -325.28)"/><path d="M656,367.84a1.67,1.67,0,0,1,.71-.19,3,3,0,0,1,1.53.33,2.88,2.88,0,0,1,1.19,1,1.45,1.45,0,0,1,.22.71s-.25-.17-.58-.36-.77-.41-1.21-.63l-1.24-.61Z" transform="translate(-623.94 -325.28)"/><path d="M658,363.45a1.79,1.79,0,0,1,.64,0,2.42,2.42,0,0,1,1.24.55,2.23,2.23,0,0,1,.74,1.17,1.5,1.5,0,0,1,0,.64s-.21-.17-.45-.4-.54-.49-.85-.75-.64-.52-.89-.75A5,5,0,0,1,658,363.45Z" transform="translate(-623.94 -325.28)"/><path d="M659.2,358.34a2,2,0,0,1,.59,0,2.79,2.79,0,0,1,1.14.43,2.16,2.16,0,0,1,.83,1,1.12,1.12,0,0,1,.07.6l-.47-.3-.91-.56a6.64,6.64,0,0,1-.89-.72A2.82,2.82,0,0,1,659.2,358.34Z" transform="translate(-623.94 -325.28)"/><path d="M661.69,354.39a2,2,0,0,1,.45,0,2.1,2.1,0,0,1,.81.35,1.7,1.7,0,0,1,.57.75,1,1,0,0,1,.07.47,4.42,4.42,0,0,1-.43-.13,3.07,3.07,0,0,1-.73-.39,2.36,2.36,0,0,1-.58-.65A1.15,1.15,0,0,1,661.69,354.39Z" transform="translate(-623.94 -325.28)"/><path d="M663.15,350.15a1.78,1.78,0,0,1,.38.09,1.38,1.38,0,0,1,.59.4,1.18,1.18,0,0,1,.28.72.85.85,0,0,1-.08.4,3.8,3.8,0,0,1-.35-.16,1.73,1.73,0,0,1-.52-.4,1.57,1.57,0,0,1-.3-.64A.94.94,0,0,1,663.15,350.15Z" transform="translate(-623.94 -325.28)"/><path d="M664,346.06a2.8,2.8,0,0,1,.55.42,5,5,0,0,1,.89,1.14,3.94,3.94,0,0,1,.47,1.39,2.38,2.38,0,0,1,0,.7,3.88,3.88,0,0,1-.45-.51,10.14,10.14,0,0,1-.77-1.16,6.71,6.71,0,0,1-.56-1.3A3.18,3.18,0,0,1,664,346.06Z" transform="translate(-623.94 -325.28)"/><path d="M666.07,343.28a2.22,2.22,0,0,1,.38.35,2.35,2.35,0,0,1,.49.89,2,2,0,0,1,0,1.09,1.2,1.2,0,0,1-.27.45s-.12-.2-.23-.44a6.46,6.46,0,0,1-.33-.86,3.35,3.35,0,0,1-.12-1A1.73,1.73,0,0,1,666.07,343.28Z" transform="translate(-623.94 -325.28)"/><path d="M653.79,408.77s.23.25.53.54a13.76,13.76,0,0,0,1.14,1c.43.33.88.66,1.24.92s.6.47.6.47a2.27,2.27,0,0,1-.79,0,3.59,3.59,0,0,1-1.58-.7,3,3,0,0,1-1-1.42A1.7,1.7,0,0,1,653.79,408.77Z" transform="translate(-623.94 -325.28)"/><path d="M654.67,406.28s.31.09.68.22.87.3,1.37.49a6.55,6.55,0,0,1,1.35.69,2.62,2.62,0,0,1,.55.5,4.43,4.43,0,0,1-.73,0,6,6,0,0,1-1.49-.36,3.51,3.51,0,0,1-1.33-.88A2.1,2.1,0,0,1,654.67,406.28Z" transform="translate(-623.94 -325.28)"/><path d="M655.55,402.63a4.94,4.94,0,0,1,.74-.09,10.06,10.06,0,0,1,1.54,0,8,8,0,0,1,1.54.25,4.31,4.31,0,0,1,.71.25,3.14,3.14,0,0,1-.72.25,5.69,5.69,0,0,1-1.6.11,4.88,4.88,0,0,1-1.56-.39A2.67,2.67,0,0,1,655.55,402.63Z" transform="translate(-623.94 -325.28)"/><path d="M656.86,399a5.52,5.52,0,0,1,.71-.15,9.22,9.22,0,0,1,1.48-.11,6.86,6.86,0,0,1,1.51.16,3,3,0,0,1,.69.25,4.12,4.12,0,0,1-.68.25,5.66,5.66,0,0,1-1.52.2,4.37,4.37,0,0,1-1.53-.26A2.74,2.74,0,0,1,656.86,399Z" transform="translate(-623.94 -325.28)"/><path d="M657.16,394.59a2.86,2.86,0,0,1,.53-.34,3.93,3.93,0,0,1,1.25-.38,2.68,2.68,0,0,1,1.35.18,1.31,1.31,0,0,1,.52.39l-.59.1c-.33.06-.75.14-1.19.19a5.33,5.33,0,0,1-1.26,0A2.16,2.16,0,0,1,657.16,394.59Z" transform="translate(-623.94 -325.28)"/><path d="M657,389.91l.28-.28a5,5,0,0,1,.87-.58,7.4,7.4,0,0,1,1.35-.58,11.76,11.76,0,0,1,1.63-.4,9.17,9.17,0,0,1,3.15,0,4.72,4.72,0,0,1,1,.32l.34.18-.38,0c-.25,0-.59,0-1,0a29.46,29.46,0,0,0-3,.34c-1.07.17-2.14.38-2.94.58q-.6.15-1,.27Z" transform="translate(-623.94 -325.28)"/><path d="M657.3,386.25a10.52,10.52,0,0,1,1.43-.71,13.8,13.8,0,0,1,3.38-.94,8.54,8.54,0,0,1,3.55.18,4.1,4.1,0,0,1,1.08.49l.36.25-.43-.09a7.32,7.32,0,0,0-1.1-.16,11.69,11.69,0,0,0-1.56,0c-.57,0-1.17.09-1.78.18-1.21.17-2.43.39-3.36.55S657.3,386.25,657.3,386.25Z" transform="translate(-623.94 -325.28)"/><path d="M658.18,381.87a6.17,6.17,0,0,1,1.32-.54,12.2,12.2,0,0,1,3.08-.46,9.36,9.36,0,0,1,3.11.45,4.56,4.56,0,0,1,.94.46l.32.24-.38-.08c-.24-.05-.58-.09-1-.13a27.68,27.68,0,0,0-3-.07l-3,.08Z" transform="translate(-623.94 -325.28)"/><path d="M658.33,379s.36-.12.86-.25a11.24,11.24,0,0,1,1.88-.36,5.06,5.06,0,0,1,2,.17,2.4,2.4,0,0,1,.82.44L663,379l-1.85.19a8.33,8.33,0,0,1-1.94,0A2.88,2.88,0,0,1,658.33,379Z" transform="translate(-623.94 -325.28)"/><path d="M659.2,374.71a3.44,3.44,0,0,1,.72-.23,6.85,6.85,0,0,1,3.12.1,3.58,3.58,0,0,1,.69.27,3.47,3.47,0,0,1-.71.23,6.31,6.31,0,0,1-1.57.13,6.76,6.76,0,0,1-1.55-.23A3.89,3.89,0,0,1,659.2,374.71Z" transform="translate(-623.94 -325.28)"/><path d="M659.79,371.78l.7-.24a8.55,8.55,0,0,1,1.53-.34,3.49,3.49,0,0,1,1.64.16,1.68,1.68,0,0,1,.66.42l-.73.08-1.48.2a5.66,5.66,0,0,1-1.6,0A2,2,0,0,1,659.79,371.78Z" transform="translate(-623.94 -325.28)"/><path d="M660.52,367.55a5.07,5.07,0,0,1,.87-.4,7.6,7.6,0,0,1,2-.4,5.17,5.17,0,0,1,2.09.31,2.8,2.8,0,0,1,.85.49h-.94c-.54,0-1.25,0-2,.07s-1.44.05-2,0A6.35,6.35,0,0,1,660.52,367.55Z" transform="translate(-623.94 -325.28)"/><path d="M661.25,364.33a2.18,2.18,0,0,1,.71-.49,4.45,4.45,0,0,1,1.83-.36,5.53,5.53,0,0,1,1.81.32,3.31,3.31,0,0,1,.77.38,5.74,5.74,0,0,1-.84.11c-.49,0-1.12.06-1.74,0l-1.72,0Z" transform="translate(-623.94 -325.28)"/><path d="M662.42,360.09a3.23,3.23,0,0,1,.66-.38,4.74,4.74,0,0,1,1.57-.4,3.7,3.7,0,0,1,1.64.22,1.86,1.86,0,0,1,.66.41l-.73.08c-.42,0-1,.11-1.5.15a11.78,11.78,0,0,1-1.55,0A3.54,3.54,0,0,1,662.42,360.09Z" transform="translate(-623.94 -325.28)"/><path d="M663,356.14a3.92,3.92,0,0,1,1.16-.48,8.56,8.56,0,0,1,5.38.41,3.62,3.62,0,0,1,1.06.66s-.49-.1-1.2-.18-1.64-.18-2.58-.25-1.89-.13-2.6-.15S663,356.14,663,356.14Z" transform="translate(-623.94 -325.28)"/><path d="M664.32,352.78a2.4,2.4,0,0,1,.65-.24,4.16,4.16,0,0,1,1.45-.11,4.09,4.09,0,0,1,1.42.39,2.57,2.57,0,0,1,.57.4,4.11,4.11,0,0,1-.68.09,8.2,8.2,0,0,1-1.39,0A7.22,7.22,0,0,1,665,353,3.59,3.59,0,0,1,664.32,352.78Z" transform="translate(-623.94 -325.28)"/><path d="M665.63,350.15a3.74,3.74,0,0,1,.58-.26,3.61,3.61,0,0,1,1.31-.2,2.44,2.44,0,0,1,1.33.41,1.29,1.29,0,0,1,.44.49l-1.8,0a6.66,6.66,0,0,1-1.26-.16A2.28,2.28,0,0,1,665.63,350.15Z" transform="translate(-623.94 -325.28)"/><path d="M666.37,347.52a2.83,2.83,0,0,1,.6-.48,4.57,4.57,0,0,1,1.53-.61,4.28,4.28,0,0,1,1.66-.05,2.17,2.17,0,0,1,.74.26s-.31.12-.72.24-.95.27-1.5.39a13.15,13.15,0,0,1-1.55.24A6.46,6.46,0,0,1,666.37,347.52Z" transform="translate(-623.94 -325.28)"/><path d="M667.68,344.89a1.78,1.78,0,0,1,.52-.56,4.37,4.37,0,0,1,1.44-.67,5.56,5.56,0,0,1,1.55-.17,4,4,0,0,1,.73.08,3.21,3.21,0,0,1-.62.4,7.5,7.5,0,0,1-1.44.53,13.49,13.49,0,0,1-1.47.29Z" transform="translate(-623.94 -325.28)"/><path d="M668.12,341.67s0-.12.13-.32a2.72,2.72,0,0,1,.58-.76,5.42,5.42,0,0,1,2.57-1.23,9,9,0,0,1,2.78-.13,6.15,6.15,0,0,1,1.25.25s-.5.12-1.23.25-1.69.28-2.62.48a11.9,11.9,0,0,0-1.34.34,7.07,7.07,0,0,0-1.12.44c-.15.09-.3.16-.41.24a2.21,2.21,0,0,0-.32.22A3.46,3.46,0,0,1,668.12,341.67Z" transform="translate(-623.94 -325.28)"/><path d="M668.7,338.9l0-.25a1.54,1.54,0,0,1,.29-.6,3.22,3.22,0,0,1,1.62-1.1,5.27,5.27,0,0,1,1.88-.25,3.43,3.43,0,0,1,.86.15,7.81,7.81,0,0,1-.79.35c-.46.18-1.08.37-1.67.57-.3.1-.59.2-.86.31a4.57,4.57,0,0,0-.7.33,2.52,2.52,0,0,0-.47.32Z" transform="translate(-623.94 -325.28)"/><path d="M660.81,412.42a2.82,2.82,0,0,1,.69.11,11.39,11.39,0,0,1,1.3.5,6.85,6.85,0,0,0,1.18.47,2.06,2.06,0,0,0,.44.08h.19a1.12,1.12,0,0,1-.13.15,1.19,1.19,0,0,1-.48.26,2.28,2.28,0,0,1-1.56-.18,4,4,0,0,1-1.2-.86A4.25,4.25,0,0,1,660.81,412.42Z" transform="translate(-623.94 -325.28)"/><path d="M664.32,409.79l.9.07a14,14,0,0,1,1.9.34,5.55,5.55,0,0,1,1.82.81,2.17,2.17,0,0,1,.64.68s-.36-.11-.86-.23-1.16-.25-1.83-.43a8.43,8.43,0,0,1-1.83-.69A3,3,0,0,1,664.32,409.79Z" transform="translate(-623.94 -325.28)"/><path d="M666.8,406.86s.41,0,1,0a9.72,9.72,0,0,1,2.1.36,4,4,0,0,1,1.89,1.18,2.12,2.12,0,0,1,.37.65c.05.17.07.27.07.27l-.21-.17a6,6,0,0,0-.56-.37,9.68,9.68,0,0,0-1.82-.73,16.87,16.87,0,0,1-2-.7A3.83,3.83,0,0,1,666.8,406.86Z" transform="translate(-623.94 -325.28)"/><path d="M668.7,403.06a3,3,0,0,1,1.09-.08,6.26,6.26,0,0,1,2.27.7,6.13,6.13,0,0,1,1.05.73,3.66,3.66,0,0,1,.76.84,2.41,2.41,0,0,1,.34.73c0,.2,0,.3,0,.3l-.2-.22a5.42,5.42,0,0,0-.56-.47,14,14,0,0,0-1.85-1.14c-.7-.38-1.42-.74-2-1S668.7,403.06,668.7,403.06Z" transform="translate(-623.94 -325.28)"/><path d="M672.65,400.43l.18-.08a1.36,1.36,0,0,1,.53-.05,2.53,2.53,0,0,1,1.4.63,3.66,3.66,0,0,1,.89,1.18,2.44,2.44,0,0,1,.22.66,3.34,3.34,0,0,1-.6-.33,12,12,0,0,1-1.07-.85c-.37-.31-.71-.62-1-.82a2.71,2.71,0,0,0-.38-.25Z" transform="translate(-623.94 -325.28)"/><path d="M671.48,396.34l.3,0a4.67,4.67,0,0,1,.8,0,6.55,6.55,0,0,1,1.09.26,7.35,7.35,0,0,1,1.17.5,6.25,6.25,0,0,1,1.07.72,3.75,3.75,0,0,1,.78.83,2.17,2.17,0,0,1,.34.76c0,.21,0,.31,0,.31l-.17-.24a3.43,3.43,0,0,0-.54-.49,16.73,16.73,0,0,0-1.9-1.13l-2-1C671.89,396.51,671.48,396.34,671.48,396.34Z" transform="translate(-623.94 -325.28)"/><path d="M674.11,392.54a1.37,1.37,0,0,1,.64-.12,2.49,2.49,0,0,1,1.31.45,3.82,3.82,0,0,1,.93.9,3.41,3.41,0,0,1,.34.52,1.93,1.93,0,0,1-.63-.11,5.59,5.59,0,0,1-1.13-.59l-1-.69Z" transform="translate(-623.94 -325.28)"/><path d="M673.67,387.42a5.38,5.38,0,0,1,.87.14,6,6,0,0,1,1.74.7,3.73,3.73,0,0,1,1.39,1.37,1.79,1.79,0,0,1,.22.62,2.18,2.18,0,0,1,0,.24l-.17-.16c-.11-.11-.27-.24-.45-.39a17.14,17.14,0,0,0-1.46-.94,17.21,17.21,0,0,1-1.51-1A4.19,4.19,0,0,1,673.67,387.42Z" transform="translate(-623.94 -325.28)"/><path d="M675.28,384.94a1,1,0,0,1,.52-.15,1.92,1.92,0,0,1,1.07.3,2,2,0,0,1,.75.8,1.35,1.35,0,0,1,.15.51,3.75,3.75,0,0,1-.49-.15,4.93,4.93,0,0,1-.86-.43,6.25,6.25,0,0,1-.76-.55Z" transform="translate(-623.94 -325.28)"/><path d="M675.28,381.14a2.9,2.9,0,0,1,.58.05,3.54,3.54,0,0,1,1.13.39,2.56,2.56,0,0,1,.93.85,1,1,0,0,1,.16.43.37.37,0,0,1,0,.18,1.13,1.13,0,0,0-.47-.24,8.45,8.45,0,0,1-1-.46,4.23,4.23,0,0,1-.94-.72A1.6,1.6,0,0,1,675.28,381.14Z" transform="translate(-623.94 -325.28)"/><path d="M673.09,375.88a3.1,3.1,0,0,1,1,.05,6.6,6.6,0,0,1,2.06.82,7.85,7.85,0,0,1,1.71,1.39,4.83,4.83,0,0,1,.62.81s-.39-.15-.92-.42-1.2-.64-1.85-1l-1.79-1.1Z" transform="translate(-623.94 -325.28)"/><path d="M675.14,373.68a3,3,0,0,1,.73,0,5.36,5.36,0,0,1,1.48.43,4.68,4.68,0,0,1,1.29.86,2.32,2.32,0,0,1,.44.59s-.3-.05-.7-.16a11.4,11.4,0,0,1-1.39-.5,7.55,7.55,0,0,1-1.31-.76A3.06,3.06,0,0,1,675.14,373.68Z" transform="translate(-623.94 -325.28)"/><path d="M677.47,371.49a1,1,0,0,1,.47-.18,1.59,1.59,0,0,1,1,.24,1.68,1.68,0,0,1,.65.77,1,1,0,0,1,.08.49s-.22-.06-.45-.15a5.78,5.78,0,0,1-.74-.38,7.54,7.54,0,0,1-.66-.48Z" transform="translate(-623.94 -325.28)"/><path d="M675.57,366.38a2.11,2.11,0,0,1,1.13-.22,3.25,3.25,0,0,1,1.11.24,3,3,0,0,1,1.66,1.53l0,.11,0,0a.27.27,0,0,1-.1.14.12.12,0,0,1-.12,0,.1.1,0,0,1-.06,0l0-.06c0-.05,0-.12-.1-.15a.28.28,0,0,1,.22,0h0l0,0a.11.11,0,0,0-.08,0s0,0,0,0l0,.13-.89-.5-.88-.43-.91-.41Z" transform="translate(-623.94 -325.28)"/><path d="M676.89,363.74a2,2,0,0,1,.57-.15,2.62,2.62,0,0,1,1.23.16,2.33,2.33,0,0,1,1,.76,1.4,1.4,0,0,1,.25.55l-.55-.15c-.3-.09-.67-.21-1-.35a8.73,8.73,0,0,1-1-.48A3.08,3.08,0,0,1,676.89,363.74Z" transform="translate(-623.94 -325.28)"/><path d="M676.89,359.36a.87.87,0,0,1,.17-.08,1.07,1.07,0,0,1,.52-.08,1.75,1.75,0,0,1,.71.17,2.86,2.86,0,0,1,.69.41,4,4,0,0,1,.93,1.07l.34.56-.2,0a1.82,1.82,0,0,1-.47-.17,7.28,7.28,0,0,1-1.14-.76,11.74,11.74,0,0,0-1-.78,1.6,1.6,0,0,0-.38-.23Z" transform="translate(-623.94 -325.28)"/><path d="M678.06,356.14a1.57,1.57,0,0,1,.51,0,2.27,2.27,0,0,1,1,.36,2.11,2.11,0,0,1,.7.77,1.4,1.4,0,0,1,.16.49,2.77,2.77,0,0,1-.49-.12,3.94,3.94,0,0,1-.85-.42,3.49,3.49,0,0,1-.72-.64A2.37,2.37,0,0,1,678.06,356.14Z" transform="translate(-623.94 -325.28)"/><path d="M678.06,353.22a1.27,1.27,0,0,1,.56,0,2.08,2.08,0,0,1,1,.5,1.92,1.92,0,0,1,.6,1,1.05,1.05,0,0,1,0,.57l-.42-.31c-.22-.18-.49-.39-.75-.62a9.06,9.06,0,0,1-.69-.71A4.74,4.74,0,0,1,678.06,353.22Z" transform="translate(-623.94 -325.28)"/><path d="M676.6,349.71a3.67,3.67,0,0,1,.68,0,4.82,4.82,0,0,1,1.42.37,2.75,2.75,0,0,1,1.16,1,1.61,1.61,0,0,1,.25.67l-.59-.31c-.33-.18-.75-.37-1.19-.57a7.69,7.69,0,0,1-1.22-.69A2.28,2.28,0,0,1,676.6,349.71Z" transform="translate(-623.94 -325.28)"/><path d="M677.62,347.08a.89.89,0,0,1,.49-.25,1.7,1.7,0,0,1,1.14.19,2.21,2.21,0,0,1,.79.75,1.64,1.64,0,0,1,.21.48,2.17,2.17,0,0,1-.52-.08,4.63,4.63,0,0,1-.9-.39c-.28-.15-.54-.32-.78-.45Z" transform="translate(-623.94 -325.28)"/><path d="M675.87,343.72s.31,0,.72,0a5.62,5.62,0,0,1,1.55.16,2.54,2.54,0,0,1,1.42.9,1.4,1.4,0,0,1,.23.52,1.67,1.67,0,0,1,0,.21l-.17-.11a2.21,2.21,0,0,0-.42-.25,7.74,7.74,0,0,0-1.31-.43,7,7,0,0,1-1.44-.52A2,2,0,0,1,675.87,343.72Z" transform="translate(-623.94 -325.28)"/></g></g></svg>